<svg width="26" height="48" viewBox="0 0 26 48" fill="none" xmlns="http://www.w3.org/2000/svg">
<path fill-rule="evenodd" clip-rule="evenodd" d="M24.9168 0.0574606L18.7749 0.0474854C11.8747 0.0474854 7.41554 4.67858 7.41554 11.8464V17.2865H1.24016C0.706539 17.2865 0.274414 17.7245 0.274414 18.2646V26.1467C0.274414 26.6869 0.707032 27.1243 1.24016 27.1243H7.41554V47.0134C7.41554 47.5535 7.84767 47.9909 8.38129 47.9909H16.4384C16.972 47.9909 17.4042 47.553 17.4042 47.0134V27.1243H24.6246C25.1582 27.1243 25.5904 26.6869 25.5904 26.1467L25.5933 18.2646C25.5933 18.0053 25.4913 17.7569 25.3105 17.5733C25.1297 17.3898 24.8833 17.2865 24.6271 17.2865H17.4042V12.6749C17.4042 10.4584 17.926 9.33312 20.7784 9.33312L24.9158 9.33163C25.4489 9.33163 25.8811 8.8937 25.8811 8.35403V1.03505C25.8811 0.495881 25.4494 0.0584582 24.9168 0.0574606Z" fill="white"/>
</svg>
