<svg width="875" height="1108" viewBox="0 0 875 1108" fill="none" xmlns="http://www.w3.org/2000/svg">
<path d="M479.313 293.014L486.549 43.8318C486.549 43.8318 491.565 -12.895 568.088 2.71917C644.683 18.3334 840.862 64.2449 840.862 64.2449C840.862 64.2449 882.276 78.8564 858.632 145.109C834.987 211.362 786.05 338.783 786.05 338.783L966.394 240.299C966.394 240.299 1037.76 203.913 1064.13 276.612C1090.49 349.312 1140.22 538.258 1140.22 538.258C1140.22 538.258 1161.79 602.505 1082.83 611.888C1003.87 621.271 864.507 635.667 864.507 635.667L1081.9 760.796C1081.9 760.796 1124.74 785.507 1063.98 857.346C1003.29 929.186 907.999 1038.56 907.999 1038.56C907.999 1038.56 857.342 1107.39 793.788 1021.87C730.162 936.348 668.901 855.914 668.901 855.914L661.736 1101.73C661.736 1101.73 658.44 1158.53 571.885 1140.98C485.331 1123.43 325.55 1090.27 325.55 1090.27C325.55 1090.27 264.289 1066.71 287.79 1007.19C311.292 947.594 362.092 813.512 362.092 813.512L170.57 911.709C170.57 911.709 108.878 941.72 87.4549 872.459C66.0313 803.198 6.27465 614.037 6.27465 614.037C6.27465 614.037 -25.395 551.222 53.5641 543.415C132.523 535.608 283.778 514.98 283.778 514.98L78.0686 391.857C78.0686 391.857 25.4054 360.199 98.1309 276.971C170.856 193.743 271.096 86.1621 271.096 86.1621C271.096 86.1621 308.856 55.435 342.603 103.28C376.279 151.126 479.313 293.014 479.313 293.014Z" fill="#318F9C" fill-opacity="0.2"/>
</svg>
