<svg width="49" height="49" viewBox="0 0 49 49" fill="none" xmlns="http://www.w3.org/2000/svg">
<path d="M34.8838 0.0474854C42.2055 0.0474854 48.1618 6.00402 48.1618 13.3252V34.8837C48.1618 42.2049 42.2055 48.1614 34.8838 48.1614H13.3253C6.00411 48.1614 0.0478516 42.2052 0.0478516 34.8837V13.3252C0.0478516 6.00402 6.00411 0.0474854 13.3253 0.0474854H34.8838ZM24.1048 11.7073C17.2686 11.7073 11.7071 17.2688 11.7071 24.105C11.7071 30.9409 17.2686 36.5022 24.1048 36.5022C30.941 36.5022 36.5026 30.9409 36.5026 24.105C36.5026 17.2688 30.941 11.7073 24.1048 11.7073ZM24.1048 15.9759C28.5872 15.9759 32.2337 19.6224 32.2337 24.1047C32.2337 28.5868 28.5869 32.233 24.1048 32.233C19.6228 32.233 15.976 28.5868 15.976 24.1047C15.976 19.6224 19.6225 15.9759 24.1048 15.9759ZM37.0225 8.08753C36.2 8.08753 35.3921 8.42051 34.8112 9.00392C34.2275 9.58449 33.892 10.3927 33.892 11.2181C33.892 12.0408 34.2278 12.8488 34.8112 13.4322C35.3918 14.0128 36.2 14.3486 37.0225 14.3486C37.8478 14.3486 38.6532 14.0128 39.2366 13.4322C39.8201 12.8488 40.153 12.0405 40.153 11.2181C40.153 10.3927 39.8201 9.58449 39.2366 9.00392C38.6561 8.42051 37.8478 8.08753 37.0225 8.08753Z" fill="white"/>
</svg>
