<svg width="61" height="61" viewBox="0 0 61 61" fill="none" xmlns="http://www.w3.org/2000/svg">
<path fill-rule="evenodd" clip-rule="evenodd" d="M3.99707 22.2262H15.0392V55.5518H3.99707V22.2262Z" fill="white"/>
<path fill-rule="evenodd" clip-rule="evenodd" d="M43.5347 21.1233C38.6932 21.1233 35.8058 22.9043 32.7481 26.8045V22.2259H21.7061V55.5515H32.8324V37.4894C32.8324 33.6733 34.7857 29.9422 39.2023 29.9422C43.619 29.9422 46.2518 33.6733 46.2518 37.4044V55.5515H57.379V36.6419C57.379 23.4976 48.4605 21.1233 43.5347 21.1233Z" fill="white"/>
<path fill-rule="evenodd" clip-rule="evenodd" d="M9.5598 6.02979C5.9078 6.02979 3.01953 8.65828 3.01953 11.881C3.01953 15.1038 5.9078 17.7323 9.5598 17.7323C13.2118 17.7323 16.1001 15.1038 16.1001 11.881C16.1001 8.65828 13.2118 6.02979 9.5598 6.02979Z" fill="white"/>
</svg>
