<svg width="27" height="27" viewBox="0 0 27 27" fill="none" xmlns="http://www.w3.org/2000/svg">
<path d="M26.6701 25.0794L18.9921 17.4014C20.4793 15.5643 21.3748 13.2299 21.3748 10.6874C21.3748 4.79473 16.5801 0 10.6874 0C4.79467 0 0 4.79467 0 10.6874C0 16.5801 4.79473 21.3748 10.6874 21.3748C13.2299 21.3748 15.5643 20.4793 17.4014 18.9921L25.0794 26.6701C25.2988 26.8895 25.5868 26.9998 25.8748 26.9998C26.1628 26.9998 26.4508 26.8895 26.6702 26.6701C27.11 26.2303 27.11 25.5193 26.6701 25.0794ZM10.6874 19.1248C6.03445 19.1248 2.25 15.3404 2.25 10.6874C2.25 6.0344 6.03445 2.24995 10.6874 2.24995C15.3404 2.24995 19.1249 6.0344 19.1249 10.6874C19.1249 15.3404 15.3404 19.1248 10.6874 19.1248Z" fill="white"/>
</svg>
