<svg width="54" height="46" viewBox="0 0 54 46" fill="none" xmlns="http://www.w3.org/2000/svg">
<path fill-rule="evenodd" clip-rule="evenodd" d="M52.8444 6.49622C51.8569 6.86364 50.8446 7.16095 49.815 7.38596C49.6122 7.43132 49.4041 7.33561 49.307 7.15233C49.2099 6.96904 49.2478 6.74357 49.3995 6.60192C50.5801 5.47382 51.5527 4.14754 52.2732 2.6836C52.3584 2.50606 52.3209 2.29407 52.1798 2.15644C52.0387 2.01881 51.8254 1.98611 51.6494 2.07512C49.7803 3.07545 47.7412 3.72091 45.6359 3.97868C43.4291 1.79346 40.453 0.556338 37.3438 0.531865C34.3194 0.529184 31.418 1.7266 29.2794 3.86014C27.1408 5.99367 25.9405 8.88814 25.9432 11.9054C25.9393 12.7453 26.0261 13.5832 26.2021 14.4046C17.8659 14.1527 8.13473 10.1333 2.44917 3.14593C2.35287 3.02557 2.20255 2.96133 2.04878 2.97482C1.895 2.98831 1.75823 3.07774 1.68446 3.21302C-0.56715 7.84087 0.546231 13.3983 4.40793 16.8072C4.56286 16.933 4.61888 17.1441 4.54665 17.3299C4.47443 17.5156 4.29042 17.6338 4.09099 17.6225C3.09802 17.5784 2.12521 17.328 1.23485 16.8872C1.0875 16.8127 0.91146 16.8227 0.773467 16.9132C0.635473 17.0038 0.556652 17.1612 0.566884 17.3256C0.756461 21.7725 3.68295 25.639 7.91822 27.0383C8.1158 27.1093 8.24019 27.3047 8.22067 27.5133C8.20115 27.7219 8.04265 27.891 7.8353 27.9243C6.96773 28.0225 6.09181 28.0225 5.22424 27.9243C5.07223 27.9101 4.92287 27.971 4.8244 28.0874C4.72592 28.2038 4.69081 28.3609 4.7304 28.508C5.51261 31.5246 9.42184 35.0569 13.7954 35.5413C13.9744 35.5646 14.1233 35.69 14.1763 35.8622C14.2292 36.0344 14.1765 36.2215 14.0414 36.341C10.3943 39.2551 5.81105 40.75 1.14272 40.5479C0.927241 40.5383 0.733969 40.6792 0.67761 40.8869C0.621251 41.0946 0.716896 41.3135 0.907778 41.4137C5.83342 43.9908 11.3126 45.3364 16.8745 45.3348C25.6101 45.3924 33.9844 41.8608 40.0298 35.5698C46.0753 29.2788 49.259 20.7828 48.8329 12.0782V11.6471C50.5828 10.4237 52.1187 8.92101 53.3788 7.19937C53.5008 7.03533 53.4996 6.81064 53.3759 6.64787C53.2522 6.4851 53.0356 6.42332 52.8444 6.49622Z" fill="white"/>
</svg>
