<svg width="12" height="13" viewBox="0 0 12 13" fill="none" xmlns="http://www.w3.org/2000/svg">
<path d="M5.03255 3.07651L5.10853 0.460212C5.10853 0.460212 5.16119 -0.135391 5.96464 0.02855C6.76885 0.192491 8.82864 0.674539 8.82864 0.674539C8.82864 0.674539 9.26347 0.827953 9.01521 1.52358C8.76695 2.2192 8.25313 3.55705 8.25313 3.55705L10.1467 2.52302C10.1467 2.52302 10.896 2.14099 11.1728 2.90429C11.4496 3.6676 11.9717 5.65144 11.9717 5.65144C11.9717 5.65144 12.1982 6.32601 11.3691 6.42452C10.5401 6.52304 9.0769 6.67419 9.0769 6.67419L11.3594 7.98798C11.3594 7.98798 11.8092 8.24743 11.1713 9.00171C10.5341 9.75599 9.53354 10.9043 9.53354 10.9043C9.53354 10.9043 9.00167 11.627 8.33438 10.7291C7.66634 9.8312 7.02313 8.98667 7.02313 8.98667L6.9479 11.5676C6.9479 11.5676 6.91329 12.164 6.00452 11.9797C5.09574 11.7955 3.41812 11.4473 3.41812 11.4473C3.41812 11.4473 2.7749 11.1999 3.02166 10.5749C3.26841 9.94926 3.80179 8.54147 3.80179 8.54147L1.7909 9.5725C1.7909 9.5725 1.14317 9.8876 0.918233 9.16039C0.693296 8.43318 0.0658807 6.44708 0.0658807 6.44708C0.0658807 6.44708 -0.266635 5.78756 0.562397 5.70559C1.39143 5.62362 2.97953 5.40703 2.97953 5.40703L0.819682 4.1143C0.819682 4.1143 0.266744 3.78191 1.03033 2.90805C1.79391 2.0342 2.84637 0.904659 2.84637 0.904659C2.84637 0.904659 3.24283 0.58204 3.59716 1.08439C3.95074 1.58675 5.03255 3.07651 5.03255 3.07651Z" fill="#318F9C"/>
</svg>
