<svg width="49" height="34" viewBox="0 0 49 34" fill="none" xmlns="http://www.w3.org/2000/svg">
<path d="M47.5314 5.85249C46.9399 3.36006 44.8381 1.52123 42.3078 1.24692C36.3161 0.598178 30.2515 0.594792 24.2148 0.598178C18.1772 0.594792 12.1116 0.598178 6.1199 1.24692C3.59113 1.52123 1.4908 3.36006 0.899255 5.85249C0.0573281 9.40196 0.0478516 13.2765 0.0478516 16.931C0.0478516 20.5854 0.0478515 24.4595 0.889778 28.0085C1.48032 30.5005 3.58115 32.3393 6.11142 32.6141C12.1027 33.2633 18.1677 33.2667 24.2054 33.2633C30.244 33.2667 36.3076 33.2633 42.2983 32.6141C44.8271 32.3398 46.9294 30.5009 47.521 28.0085C48.3634 24.4591 48.3664 20.585 48.3664 16.931C48.3664 13.2765 48.3734 9.40196 47.5314 5.85249ZM17.9717 24.2051C17.9717 19.0209 17.9717 13.8909 17.9717 8.70629C23.0926 11.2979 28.1796 13.8721 33.3329 16.4796C28.1955 19.064 23.1061 21.6227 17.9717 24.2051Z" fill="white"/>
</svg>
