<svg width="976" height="896" viewBox="0 0 976 896" fill="none" xmlns="http://www.w3.org/2000/svg">
<path d="M452.881 285.149L459.718 42.6552C459.718 42.6552 464.457 -12.5489 536.755 2.64618C609.121 17.8412 794.47 62.5203 794.47 62.5203C794.47 62.5203 833.598 76.7395 811.258 141.214C788.919 205.688 742.683 329.688 742.683 329.688L913.072 233.848C913.072 233.848 980.496 198.439 1005.41 269.187C1030.32 339.935 1077.3 523.809 1077.3 523.809C1077.3 523.809 1097.68 586.331 1023.08 595.462C948.476 604.593 816.809 618.603 816.809 618.603L1022.2 740.373C1022.2 740.373 1062.68 764.42 1005.27 834.331C947.935 904.243 857.9 1010.68 857.9 1010.68C857.9 1010.68 810.04 1077.66 749.994 994.437C689.881 911.213 632.002 832.937 632.002 832.937L625.232 1072.15C625.232 1072.15 622.119 1127.43 540.343 1110.35C458.567 1093.27 307.608 1061 307.608 1061C307.608 1061 249.728 1038.07 271.932 980.148C294.136 922.156 342.132 791.674 342.132 791.674L161.183 887.235C161.183 887.235 102.898 916.44 82.6569 849.039C62.4161 781.637 5.95851 597.553 5.95851 597.553C5.95851 597.553 -23.9627 536.425 50.6372 528.827C125.237 521.23 268.141 501.155 268.141 501.155L73.7889 381.338C73.7889 381.338 24.0331 350.529 92.7435 269.535C161.454 188.542 256.159 83.8491 256.159 83.8491C256.159 83.8491 291.835 53.9469 323.719 100.508C355.536 147.069 452.881 285.149 452.881 285.149Z" fill="#318F9C" fill-opacity="0.2"/>
</svg>
