<svg width="72" height="72" viewBox="0 0 72 72" fill="none" xmlns="http://www.w3.org/2000/svg">
<path d="M37.4631 20.3737C36.8524 19.7625 35.8616 19.7625 35.25 20.3737C34.6388 20.9843 34.6388 21.9756 35.25 22.5867L47.1026 34.4394H15.6105C14.7436 34.4394 14.0405 35.1425 14.0405 36.0093C14.0405 36.8767 14.7436 37.5793 15.6105 37.5793H47.0869L35.2342 49.4319C34.9402 49.725 34.775 50.1237 34.775 50.5387C34.775 50.9542 34.9402 51.352 35.2342 51.6455C35.5283 51.942 35.931 52.1062 36.3489 52.1008C36.7654 52.0988 37.1651 51.9356 37.4631 51.6455L51.9846 37.1245C52.2801 36.8285 52.4448 36.4268 52.4404 36.0093C52.4374 35.5929 52.2742 35.1946 51.9846 34.8952L37.4631 20.3737Z" fill="#3C95A1"/>
<path d="M36.019 2.25692C22.3673 2.25446 10.0588 10.4775 4.83465 23.0902C-0.388547 35.7035 2.50061 50.2211 12.1569 59.8715C25.3361 73.0507 46.7029 73.0507 59.8816 59.8715C73.0603 46.6932 73.0603 25.3264 59.8816 12.1472C53.5668 5.79658 44.9746 2.23528 36.019 2.25692ZM36.019 66.6223C19.1428 66.6223 5.40649 52.8856 5.40649 36.0093C5.40649 19.1331 19.1428 5.39684 36.019 5.39684C52.8952 5.39684 66.632 19.1331 66.632 36.0093C66.632 52.8856 52.8952 66.6223 36.019 66.6223Z" fill="#3C95A1"/>
</svg>
