<svg width="72" height="72" viewBox="0 0 72 72" fill="none" xmlns="http://www.w3.org/2000/svg">
<path d="M34.5369 51.6263C35.1476 52.2375 36.1384 52.2375 36.75 51.6263C37.3612 51.0157 37.3612 50.0244 36.75 49.4132L24.8974 37.5606L56.3895 37.5606C57.2564 37.5606 57.9595 36.8575 57.9595 35.9907C57.9595 35.1233 57.2564 34.4207 56.3895 34.4207L24.9131 34.4207L36.7658 22.5681C37.0598 22.275 37.225 21.8763 37.225 21.4613C37.225 21.0458 37.0598 20.648 36.7658 20.3545C36.4717 20.058 36.069 19.8938 35.6511 19.8992C35.2346 19.9011 34.8349 20.0644 34.5369 20.3545L20.0154 34.8755C19.7199 35.1715 19.5552 35.5732 19.5596 35.9907C19.5626 36.4071 19.7258 36.8054 20.0154 37.1048L34.5369 51.6263Z" fill="#3C95A1"/>
<path d="M35.981 69.7431C49.6327 69.7455 61.9412 61.5226 67.1653 48.9098C72.3886 36.2965 69.4994 21.7789 59.8431 12.1285C46.6639 -1.05067 25.2971 -1.05067 12.1184 12.1285C-1.0603 25.3068 -1.0603 46.6736 12.1184 59.8528C18.4332 66.2034 27.0254 69.7647 35.981 69.7431ZM35.981 5.37767C52.8572 5.37767 66.5935 19.1145 66.5935 35.9907C66.5935 52.8669 52.8572 66.6032 35.981 66.6032C19.1048 66.6032 5.36803 52.8669 5.36803 35.9907C5.36803 19.1144 19.1048 5.37767 35.981 5.37767Z" fill="#3C95A1"/>
</svg>
