<?xml version="1.0" encoding="utf-8"?>
<!-- Generator: Adobe Illustrator 23.0.4, SVG Export Plug-In . SVG Version: 6.00 Build 0)  -->
<svg version="1.1" id="Layer_1" xmlns="http://www.w3.org/2000/svg" xmlns:xlink="http://www.w3.org/1999/xlink" x="0px" y="0px"
	 viewBox="0 0 226.25 395.97" style="enable-background:new 0 0 226.25 395.97;" xml:space="preserve">
<style type="text/css">
	.st0{fill:#2F8F9C;}
	.st1{font-family:'BarlowSemiCondensed-Bold';}
	.st2{font-size:14px;}
</style>
<g>
	<text transform="matrix(1 0 0 1 96.6997 345.8153)" class="st0 st1 st2">Cash</text>
	<text transform="matrix(1 0 0 1 94.8497 360.7352)" class="st0 st1 st2">Claim</text>
	<path class="st0" d="M110.43,259.48c-17.1,0-31,13.9-31,31c0,17.1,13.9,31,31,31s31-13.9,31-31
		C141.43,273.38,127.53,259.48,110.43,259.48z M121.73,277.78c2.8,0,4.7,1.9,4.7,4.5c0,2.4-1.9,4.5-4.5,4.5c-2.3,0-4.5-1.9-4.5-4.2
		C117.43,279.88,119.33,278.08,121.73,277.78z M105.53,274.28c0-0.5,0.2-0.5,0.5-0.5h2.8v-2.5c0-0.5,0.2-0.7,0.7-0.7h2.1
		c0.5,0,0.5,0.2,0.5,0.7v2.8h2.8c0-0.2,0-0.2,0.2,0c0,0,0.2,0.2,0.2,0.5v1.9c0,0.2,0,0.2-0.2,0.5c0,0-0.2,0.2-0.5,0.2h-2.8v2.8
		c0,0.2,0,0.2,0,0.5c0,0-0.2,0.2-0.5,0.2h-2.1c-0.2,0-0.2,0-0.5,0c0,0-0.2-0.2-0.2-0.5v-3.3h-2.6c-0.2,0-0.5-0.2-0.5-0.5
		C105.53,276.38,105.53,274.28,105.53,274.28z M110.43,290.48c-2.1,0-3.8-1.6-3.8-3.8c0-2.2,1.6-3.8,3.8-3.5c2.1,0,3.5,1.6,3.5,3.8
		C114.23,288.88,112.53,290.48,110.43,290.48z M98.93,277.78c2.6,0,4.5,1.9,4.5,4.5c0,2.4-2.1,4.5-4.5,4.5c-2.3,0-4.5-2.1-4.5-4.5
		C94.53,279.68,96.33,277.78,98.93,277.78z M101.53,308.58c-4.5-1.9-8.3-5.2-10.8-9.4v-5.7c0-2.8,1.2-4.7,3.3-6.6
		c1.4,1.2,2.8,1.9,4.7,1.9s3.3-0.7,4.7-1.9c0.5,0.5,1.2,1.2,1.6,1.6c-0.2,0.2-0.5,0.5-0.7,0.7c-1.9,1.9-2.8,4-2.8,6.8
		C101.53,296.08,101.53,308.58,101.53,308.58z M117.03,309.48c-2.1,0.6-4.3,1-6.6,1c-2.3,0-4.5-0.3-6.6-1v-11.5
		c0-1.9-0.2-3.8,0.7-5.4c0.5-0.7,0.9-1.2,1.4-1.9c1.2,1.2,2.6,1.9,4.5,1.9c1.6,0,3-0.7,4.2-1.9c2.4,1.9,2.4,4.5,2.4,6.8
		L117.03,309.48L117.03,309.48z M130.13,299.28c-2.5,4.2-6.4,7.6-11,9.5v-12.7c0-1.2,0-2.1-0.5-3c-0.5-1.4-1.2-2.6-2.3-3.5
		c0-0.2-0.2-0.5-0.7-0.9c0.5-0.7,1.2-1.2,1.6-1.9c1.4,1.4,3,2.1,4.9,2.1s3.3-0.7,4.7-1.9c0.9,0.7,1.6,1.4,2.1,2.3
		c0.7,1.2,1.2,2.6,1.2,4C130.13,293.28,130.13,299.28,130.13,299.28z"/>
</g>
<g>
	<g>
		<text transform="matrix(1 0 0 1 143.6213 92.5345)" class="st0 st1 st2">Doctor</text>
		<text transform="matrix(1 0 0 1 152.3814 107.4545)" class="st0 st1 st2">Call</text>
		<path class="st0" d="M162.72,6.2c-17.1,0-31,13.9-31,31s13.9,30.9,31,30.9s31-13.9,31-30.9S179.82,6.2,162.72,6.2z M162.22,30.2
			c0-0.5,0.3-0.7,0.7-0.7h3.5V26c0-0.5,0.3-0.8,0.8-0.8h2.7c0.5,0,0.7,0.3,0.7,0.8v3.5h3.5c0.3,0,0.4,0,0.5,0.3
			c0.1,0.1,0.3,0.3,0.3,0.5v2.3c0,0.3,0,0.4-0.3,0.5c-0.1,0.1-0.3,0.3-0.5,0.3h-3.5v3.7c0,0.3,0,0.4-0.1,0.5s-0.3,0.3-0.5,0.3h-2.7
			c-0.3,0-0.4,0-0.5-0.1s-0.3-0.3-0.3-0.5v-3.6h-3.5c-0.5,0-0.7-0.3-0.7-0.8v-2.7H162.22z M179.42,52c0,1.1-0.8,1.9-1.9,1.9
			c-17.4,0-31.6-14.2-31.6-31.6c0-1.1,0.8-1.9,1.9-1.9h6.9c1.1,0,1.9,0.8,1.9,1.9c0,3.2,0.7,6.2,2,9c0.3,0.4,0.3,0.9,0.1,1.5
			c-0.1,0.4-0.5,0.8-1,1.1l-2.8,1.3c2.3,4.1,5.7,7.3,9.6,9.6l1.4-2.7c0.3-0.4,0.5-0.8,1.1-0.9c0.4-0.1,0.9-0.1,1.5,0.1
			c2.8,1.3,5.9,2,9.1,2c1.1,0,1.9,0.8,1.9,1.9L179.42,52L179.42,52z"/>
	</g>
	<g>
		<text transform="matrix(1 0 0 1 143.6205 219.6946)" class="st0 st1 st2">Doctor</text>
		<text transform="matrix(1 0 0 1 134.9305 234.6145)" class="st0 st1 st2">Video Call</text>
		<path class="st0" d="M165.42,163.46c0.1,0.2,0.3,0.3,0.3,0.6v2.5c0,0.3,0,0.4-0.3,0.6c-0.1,0.1-0.3,0.3-0.6,0.3h-3.8v3.9
			c0,0.3,0,0.4-0.1,0.6c-0.1,0.1-0.3,0.3-0.6,0.3h-2.9c-0.3,0-0.4,0-0.6-0.2c-0.1-0.1-0.3-0.3-0.3-0.6v-3.9h-3.8
			c-0.6,0-0.7-0.3-0.7-0.9v-2.7c0-0.6,0.3-0.7,0.7-0.7h3.8v-3.8c0-0.6,0.3-0.9,0.9-0.9h2.9c0.6,0,0.7,0.3,0.7,0.9v3.8h3.8
			C165.12,163.26,165.22,163.26,165.42,163.46z"/>
		<path class="st0" d="M162.72,133.36c-17.1,0-31,13.9-31,31s13.9,31,31,31s31-13.9,31-31S179.82,133.36,162.72,133.36z
			 M172.62,174.76c0,1.6-1.3,2.9-2.9,2.9h-21.7c-1.6,0-2.9-1.3-2.9-2.9v-19.5c0-1.6,1.3-2.9,2.9-2.9h21.7c1.6,0,3,1.3,2.9,2.9
			V174.76z M183.02,173.66l-7.7-4.2c-0.4-0.1-0.7-0.6-0.6-1v-6.7c0-0.6,0.1-0.9,0.6-1.2l7.7-4.2c0.9-0.4,1.9,0.1,1.9,1.1v14.9
			C184.92,173.46,183.92,174.06,183.02,173.66z"/>
	</g>
	<g>
		<text transform="matrix(1 0 0 1 40.0528 219.701)" class="st0 st1 st2">Doctor</text>
		<text transform="matrix(1 0 0 1 46.1628 234.621)" class="st0 st1 st2">Chat</text>
		<path class="st0" d="M66.35,162.26c0.1,0.1,0.3,0.3,0.3,0.6v2.3c0,0.3,0,0.4-0.3,0.6c-0.1,0.1-0.3,0.3-0.6,0.3h-3.6v3.8
			c0,0.3,0,0.4-0.1,0.6c-0.1,0.1-0.3,0.3-0.6,0.3h-2.8c-0.3,0-0.4,0-0.6-0.1c-0.1-0.1-0.3-0.3-0.3-0.6v-3.9h-3.6
			c-0.6,0-0.7-0.3-0.7-0.8v-2.7c0-0.6,0.3-0.7,0.7-0.7h3.6v-3.6c0-0.6,0.3-0.8,0.8-0.8h2.8c0.6,0,0.7,0.3,0.7,0.8v3.6h3.6
			C66.15,161.96,66.25,161.96,66.35,162.26z"/>
		<path class="st0" d="M70.95,135.76c-15.8-6.5-33.9,1-40.4,16.8s1,33.9,16.8,40.4s33.9-1,40.4-16.8S86.75,142.26,70.95,135.76z
			 M76.95,174.06c0,1.8-1.5,3.4-3.4,3.4h-23.4l-6.7,6.7v-30.2c0-1.8,1.6-3.4,3.4-3.4h26.8c1.8,0,3.4,1.5,3.4,3.4v20.1H76.95z"/>
	</g>
	<g>
		<text transform="matrix(1 0 0 1 27.1424 92.5345)" class="st0 st1 st2">Free Health</text>
		<text transform="matrix(1 0 0 1 31.6624 107.4545)" class="st0 st1 st2">Cashback</text>
		<path class="st0" d="M52.79,37.3c-0.2,0-0.3-0.1-0.4-0.2c-0.1-0.1-0.2-0.2-0.2-0.4V34h-2.8c-0.4,0-0.6-0.2-0.6-0.6v-2
			c0-0.4,0.2-0.6,0.6-0.6h2.8v-2.7c0-0.4,0.2-0.6,0.6-0.6h2.2c0.3,0,0.5,0.2,0.6,0.5v0.1v2.7h2.8c0.1,0,0.3,0,0.4,0.1
			s0.2,0.3,0.2,0.4v2c0,0.2-0.1,0.3-0.2,0.4c-0.1,0.1-0.3,0.2-0.4,0.2h-2.8v2.7c0,0.3-0.2,0.5-0.5,0.6h-2.3V37.3z"/>
		<path class="st0" d="M81.19,15.3c-12.1-12.1-31.7-12.1-43.8,0c-12.1,12.1-12.1,31.7,0,43.8s31.7,12.1,43.8,0
			C93.29,47,93.29,27.4,81.19,15.3z M53.79,52.5c-0.1,0-0.2,0-0.3,0c-0.1,0-13.6-3.1-13.6-18V24.1c0-0.3,0.2-0.6,0.5-0.8l13-4.9
			c0.2-0.1,0.4-0.1,0.6,0l13,4.9c0.3,0.1,0.5,0.4,0.5,0.8v9c-7.3,0.4-13,6.5-13,13.8c0,1.8,0.3,3.5,1,5.2
			C54.89,52.2,54.29,52.4,53.79,52.5z M68.19,57.4c-5.8,0-10.6-4.7-10.6-10.6s4.7-10.6,10.6-10.6c2.9,0,5.5,1.2,7.5,3.1
			s3.1,4.5,3.1,7.5C78.79,52.7,74.09,57.4,68.19,57.4z M73.29,46.3c-0.2-0.2-0.4-0.5-0.7-0.6c-0.3-0.2-0.6-0.2-1-0.2
			c-0.3,0-0.6,0-0.8,0.2c-0.2,0.1-0.4,0.2-0.6,0.4c-0.1,0.2-0.3,0.4-0.3,0.6c-0.1,0.2-0.1,0.4-0.1,0.7s0,0.5,0.1,0.7
			s0.2,0.4,0.4,0.5c0.1,0.2,0.3,0.3,0.5,0.3c0.2,0.1,0.4,0.1,0.6,0.1c0.1,0,0.2,0,0.3,0c0.1,0,0.2-0.1,0.3-0.1
			c-0.1,0.4-0.2,0.8-0.5,1.1c-0.2,0.3-0.5,0.6-0.9,0.8s-0.6,0.4-1,0.5s-0.6,0.2-0.9,0.2c-0.1,0-0.2,0-0.3-0.1
			c-0.1,0-0.2-0.1-0.2-0.2c-0.1-0.1-0.1-0.2-0.1-0.3s0-0.3,0-0.4V45h4.8v-1.2h-4.8c0-1-0.3-1.8-0.8-2.4c-0.5-0.5-1.3-0.8-2.2-0.8
			c-0.2,0-0.5,0-0.8,0.1s-0.6,0.2-0.9,0.3l0.5,1.6c0.2-0.1,0.4-0.2,0.6-0.2s0.4-0.1,0.6-0.1c0.1,0,0.3,0,0.4,0.1s0.2,0.2,0.3,0.3
			c0.1,0.1,0.1,0.3,0.2,0.5c0,0.2,0.1,0.4,0.1,0.6h-2.3V45h2.3v5.5c0,0.4,0,0.7,0.2,1c0.1,0.3,0.2,0.5,0.4,0.7
			c0.2,0.2,0.3,0.3,0.5,0.4c0.2,0.1,0.4,0.2,0.6,0.2s0.4,0.1,0.5,0.1c0.2,0,0.3,0,0.4,0c0.4,0,0.8,0,1.2-0.2
			c0.4-0.1,0.8-0.2,1.2-0.5s0.7-0.4,1.1-0.7c0.3-0.3,0.6-0.6,0.9-1s0.5-0.8,0.6-1.2c0.1-0.5,0.2-0.9,0.2-1.5c0-0.2,0-0.5-0.1-0.8
			C73.59,46.9,73.49,46.6,73.29,46.3z"/>
	</g>
</g>
</svg>
