<?xml version="1.0" encoding="utf-8"?>
<!-- Generator: Adobe Illustrator 23.0.4, SVG Export Plug-In . SVG Version: 6.00 Build 0)  -->
<svg version="1.1" id="Layer_1" xmlns="http://www.w3.org/2000/svg" xmlns:xlink="http://www.w3.org/1999/xlink" x="0px" y="0px"
	 viewBox="0 0 568 117" style="enable-background:new 0 0 568 117;" xml:space="preserve">
<style type="text/css">
	.st0{fill:#2F8F9C;}
	.st1{font-family:'BarlowSemiCondensed-Bold';}
	.st2{font-size:14px;}
</style>
<g>
	<text transform="matrix(1 0 0 1 144.905 92.5345)" class="st0 st1 st2">Doctor</text>
	<text transform="matrix(1 0 0 1 153.6651 107.4545)" class="st0 st1 st2">Call</text>
	<path class="st0" d="M164,6.2c-17.1,0-31,13.9-31,31s13.9,30.9,31,30.9s31-13.9,31-30.9S181.1,6.2,164,6.2z M163.5,30.2
		c0-0.5,0.3-0.7,0.7-0.7h3.5V26c0-0.5,0.3-0.8,0.8-0.8h2.7c0.5,0,0.7,0.3,0.7,0.8v3.5h3.5c0.3,0,0.4,0,0.5,0.3
		c0.1,0.1,0.3,0.3,0.3,0.5v2.3c0,0.3,0,0.4-0.3,0.5c-0.1,0.1-0.3,0.3-0.5,0.3h-3.5v3.7c0,0.3,0,0.4-0.1,0.5s-0.3,0.3-0.5,0.3h-2.7
		c-0.3,0-0.4,0-0.5-0.1s-0.3-0.3-0.3-0.5v-3.6h-3.5c-0.5,0-0.7-0.3-0.7-0.8v-2.7H163.5z M180.7,52c0,1.1-0.8,1.9-1.9,1.9
		c-17.4,0-31.6-14.2-31.6-31.6c0-1.1,0.8-1.9,1.9-1.9h6.9c1.1,0,1.9,0.8,1.9,1.9c0,3.2,0.7,6.2,2,9c0.3,0.4,0.3,0.9,0.1,1.5
		c-0.1,0.4-0.5,0.8-1,1.1l-2.8,1.3c2.3,4.1,5.7,7.3,9.6,9.6l1.4-2.7c0.3-0.4,0.5-0.8,1.1-0.9c0.4-0.1,0.9-0.1,1.5,0.1
		c2.8,1.3,5.9,2,9.1,2c1.1,0,1.9,0.8,1.9,1.9L180.7,52L180.7,52z"/>
</g>
<g>
	<text transform="matrix(1 0 0 1 506.2704 92.5345)" class="st0 st1 st2">Cash</text>
	<text transform="matrix(1 0 0 1 504.4204 107.4543)" class="st0 st1 st2">Claim</text>
	<path class="st0" d="M520,6.2c-17.1,0-31,13.9-31,31s13.9,31,31,31c17.1,0,31-13.9,31-31S537.1,6.2,520,6.2z M531.3,24.5
		c2.8,0,4.7,1.9,4.7,4.5c0,2.4-1.9,4.5-4.5,4.5c-2.3,0-4.5-1.9-4.5-4.2C527,26.6,528.9,24.8,531.3,24.5z M515.1,21
		c0-0.5,0.2-0.5,0.5-0.5h2.8V18c0-0.5,0.2-0.7,0.7-0.7h2.1c0.5,0,0.5,0.2,0.5,0.7v2.8h2.8c0-0.2,0-0.2,0.2,0c0,0,0.2,0.2,0.2,0.5
		v1.9c0,0.2,0,0.2-0.2,0.5c0,0-0.2,0.2-0.5,0.2h-2.8v2.8c0,0.2,0,0.2,0,0.5c0,0-0.2,0.2-0.5,0.2h-2.1c-0.2,0-0.2,0-0.5,0
		c0,0-0.2-0.2-0.2-0.5v-3.3h-2.6c-0.2,0-0.5-0.2-0.5-0.5C515.1,23.1,515.1,21,515.1,21z M520,37.2c-2.1,0-3.8-1.6-3.8-3.8
		s1.6-3.8,3.8-3.5c2.1,0,3.5,1.6,3.5,3.8C523.8,35.6,522.1,37.2,520,37.2z M508.5,24.5c2.6,0,4.5,1.9,4.5,4.5c0,2.4-2.1,4.5-4.5,4.5
		c-2.3,0-4.5-2.1-4.5-4.5C504.1,26.4,505.9,24.5,508.5,24.5z M511.1,55.3c-4.5-1.9-8.3-5.2-10.8-9.4v-5.7c0-2.8,1.2-4.7,3.3-6.6
		c1.4,1.2,2.8,1.9,4.7,1.9c1.9,0,3.3-0.7,4.7-1.9c0.5,0.5,1.2,1.2,1.6,1.6c-0.2,0.2-0.5,0.5-0.7,0.7c-1.9,1.9-2.8,4-2.8,6.8
		C511.1,42.8,511.1,55.3,511.1,55.3z M526.6,56.2c-2.1,0.6-4.3,1-6.6,1s-4.5-0.3-6.6-1V44.7c0-1.9-0.2-3.8,0.7-5.4
		c0.5-0.7,0.9-1.2,1.4-1.9c1.2,1.2,2.6,1.9,4.5,1.9c1.6,0,3-0.7,4.2-1.9c2.4,1.9,2.4,4.5,2.4,6.8V56.2L526.6,56.2z M539.7,46
		c-2.5,4.2-6.4,7.6-11,9.5V42.8c0-1.2,0-2.1-0.5-3c-0.5-1.4-1.2-2.6-2.3-3.5c0-0.2-0.2-0.5-0.7-0.9c0.5-0.7,1.2-1.2,1.6-1.9
		c1.4,1.4,3,2.1,4.9,2.1c1.9,0,3.3-0.7,4.7-1.9c0.9,0.7,1.6,1.4,2.1,2.3c0.7,1.2,1.2,2.6,1.2,4C539.7,40,539.7,46,539.7,46z"/>
</g>
<g>
	<text transform="matrix(1 0 0 1 377.9042 92.5345)" class="st0 st1 st2">Doctor</text>
	<text transform="matrix(1 0 0 1 369.2142 107.4545)" class="st0 st1 st2">Video Call</text>
	<path class="st0" d="M399.7,36.3c0.1,0.2,0.3,0.3,0.3,0.6v2.5c0,0.3,0,0.4-0.3,0.6c-0.1,0.1-0.3,0.3-0.6,0.3h-3.8v3.9
		c0,0.3,0,0.4-0.1,0.6c-0.1,0.1-0.3,0.3-0.6,0.3h-2.9c-0.3,0-0.4,0-0.6-0.2c-0.1-0.1-0.3-0.3-0.3-0.6v-3.9H387
		c-0.6,0-0.7-0.3-0.7-0.9v-2.7c0-0.6,0.3-0.7,0.7-0.7h3.8v-3.8c0-0.6,0.3-0.9,0.9-0.9h2.9c0.6,0,0.7,0.3,0.7,0.9v3.8h3.8
		C399.4,36.1,399.5,36.1,399.7,36.3z"/>
	<path class="st0" d="M397,6.2c-17.1,0-31,13.9-31,31s13.9,31,31,31s31-13.9,31-31S414.1,6.2,397,6.2z M406.9,47.6
		c0,1.6-1.3,2.9-2.9,2.9h-21.7c-1.6,0-2.9-1.3-2.9-2.9V28.1c0-1.6,1.3-2.9,2.9-2.9H404c1.6,0,3,1.3,2.9,2.9V47.6z M417.3,46.5
		l-7.7-4.2c-0.4-0.1-0.7-0.6-0.6-1v-6.7c0-0.6,0.1-0.9,0.6-1.2l7.7-4.2c0.9-0.4,1.9,0.1,1.9,1.1v14.9
		C419.2,46.3,418.2,46.9,417.3,46.5z"/>
</g>
<g>
	<text transform="matrix(1 0 0 1 263.9071 92.541)" class="st0 st1 st2">Doctor</text>
	<text transform="matrix(1 0 0 1 270.0171 107.4609)" class="st0 st1 st2">Chat</text>
	<path class="st0" d="M290.2,35.1c0.1,0.1,0.3,0.3,0.3,0.6V38c0,0.3,0,0.4-0.3,0.6c-0.1,0.1-0.3,0.3-0.6,0.3H286v3.8
		c0,0.3,0,0.4-0.1,0.6c-0.1,0.1-0.3,0.3-0.6,0.3h-2.8c-0.3,0-0.4,0-0.6-0.1c-0.1-0.1-0.3-0.3-0.3-0.6V39H278c-0.6,0-0.7-0.3-0.7-0.8
		v-2.7c0-0.6,0.3-0.7,0.7-0.7h3.6v-3.6c0-0.6,0.3-0.8,0.8-0.8h2.8c0.6,0,0.7,0.3,0.7,0.8v3.6h3.6C290,34.8,290.1,34.8,290.2,35.1z"
		/>
	<path class="st0" d="M294.8,8.6c-15.8-6.5-33.9,1-40.4,16.8s1,33.9,16.8,40.4c15.8,6.5,33.9-1,40.4-16.8S310.6,15.1,294.8,8.6z
		 M300.8,46.9c0,1.8-1.5,3.4-3.4,3.4H274l-6.7,6.7V26.8c0-1.8,1.6-3.4,3.4-3.4h26.8c1.8,0,3.4,1.5,3.4,3.4v20.1H300.8z"/>
</g>
<g>
	<text transform="matrix(1 0 0 1 6.8556 92.5345)" class="st0 st1 st2">Free Health</text>
	<text transform="matrix(1 0 0 1 11.3756 107.4545)" class="st0 st1 st2">Cashback</text>
	<path class="st0" d="M32.5,37.3c-0.2,0-0.3-0.1-0.4-0.2c-0.1-0.1-0.2-0.2-0.2-0.4V34h-2.8c-0.4,0-0.6-0.2-0.6-0.6v-2
		c0-0.4,0.2-0.6,0.6-0.6h2.8v-2.7c0-0.4,0.2-0.6,0.6-0.6h2.2c0.3,0,0.5,0.2,0.6,0.5v0.1v2.7h2.8c0.1,0,0.3,0,0.4,0.1
		s0.2,0.3,0.2,0.4v2c0,0.2-0.1,0.3-0.2,0.4c-0.1,0.1-0.3,0.2-0.4,0.2h-2.8v2.7c0,0.3-0.2,0.5-0.5,0.6h-2.3V37.3z"/>
	<path class="st0" d="M60.9,15.3c-12.1-12.1-31.7-12.1-43.8,0C5,27.4,5,47,17.1,59.1s31.7,12.1,43.8,0C73,47,73,27.4,60.9,15.3z
		 M33.5,52.5c-0.1,0-0.2,0-0.3,0c-0.1,0-13.6-3.1-13.6-18V24.1c0-0.3,0.2-0.6,0.5-0.8l13-4.9c0.2-0.1,0.4-0.1,0.6,0l13,4.9
		c0.3,0.1,0.5,0.4,0.5,0.8v9c-7.3,0.4-13,6.5-13,13.8c0,1.8,0.3,3.5,1,5.2C34.6,52.2,34,52.4,33.5,52.5z M47.9,57.4
		c-5.8,0-10.6-4.7-10.6-10.6S42,36.2,47.9,36.2c2.9,0,5.5,1.2,7.5,3.1s3.1,4.5,3.1,7.5C58.5,52.7,53.8,57.4,47.9,57.4z M53,46.3
		c-0.2-0.2-0.4-0.5-0.7-0.6c-0.3-0.2-0.6-0.2-1-0.2c-0.3,0-0.6,0-0.8,0.2c-0.2,0.1-0.4,0.2-0.6,0.4c-0.1,0.2-0.3,0.4-0.3,0.6
		c-0.1,0.2-0.1,0.4-0.1,0.7s0,0.5,0.1,0.7s0.2,0.4,0.4,0.5c0.1,0.2,0.3,0.3,0.5,0.3c0.2,0.1,0.4,0.1,0.6,0.1c0.1,0,0.2,0,0.3,0
		c0.1,0,0.2-0.1,0.3-0.1c-0.1,0.4-0.2,0.8-0.5,1.1c-0.2,0.3-0.5,0.6-0.9,0.8s-0.6,0.4-1,0.5s-0.6,0.2-0.9,0.2c-0.1,0-0.2,0-0.3-0.1
		c-0.1,0-0.2-0.1-0.2-0.2c-0.1-0.1-0.1-0.2-0.1-0.3s0-0.3,0-0.4V45h4.8v-1.2h-4.8c0-1-0.3-1.8-0.8-2.4c-0.5-0.5-1.3-0.8-2.2-0.8
		c-0.2,0-0.5,0-0.8,0.1s-0.6,0.2-0.9,0.3l0.5,1.6c0.2-0.1,0.4-0.2,0.6-0.2s0.4-0.1,0.6-0.1c0.1,0,0.3,0,0.4,0.1s0.2,0.2,0.3,0.3
		c0.1,0.1,0.1,0.3,0.2,0.5c0,0.2,0.1,0.4,0.1,0.6h-2.3V45h2.3v5.5c0,0.4,0,0.7,0.2,1c0.1,0.3,0.2,0.5,0.4,0.7
		c0.2,0.2,0.3,0.3,0.5,0.4c0.2,0.1,0.4,0.2,0.6,0.2s0.4,0.1,0.5,0.1c0.2,0,0.3,0,0.4,0c0.4,0,0.8,0,1.2-0.2c0.4-0.1,0.8-0.2,1.2-0.5
		s0.7-0.4,1.1-0.7c0.3-0.3,0.6-0.6,0.9-1s0.5-0.8,0.6-1.2c0.1-0.5,0.2-0.9,0.2-1.5c0-0.2,0-0.5-0.1-0.8C53.3,46.9,53.2,46.6,53,46.3
		z"/>
</g>
</svg>
