<svg width="60" height="60" viewBox="0 0 60 60" fill="none" xmlns="http://www.w3.org/2000/svg">
<g clip-path="url(#clip0)">
<path d="M43.7237 14.3271H51.5172L39.6125 1.83521V10.232C39.6125 12.502 41.4377 14.3271 43.7237 14.3271Z" fill="#2F8F9C"/>
<path d="M37.0729 10.2319V-0.117188H12.692C9.53293 -0.117188 6.91406 2.48611 6.91406 5.64468V54.121C6.91406 57.28 9.53293 59.8828 12.692 59.8828H47.4857C50.6442 59.8828 53.2631 57.2795 53.2631 54.121V16.8668H43.7233C40.041 16.8668 37.0729 13.8986 37.0729 10.2319ZM19.9301 30.9146C20.4378 30.4385 21.2476 30.4701 21.7236 30.9782L28.819 38.5973V20.4703C28.819 19.7717 29.3903 19.2004 30.0888 19.2004C30.7874 19.2004 31.3586 19.7717 31.3586 20.4703V38.6128L38.454 30.9938C38.9301 30.4862 39.7398 30.4541 40.2475 30.9302C40.7556 31.4067 40.7872 32.216 40.3111 32.7242L31.0094 42.7084C30.7713 42.962 30.4381 43.1049 30.0728 43.1049C29.7079 43.1049 29.3903 42.962 29.1367 42.7084L19.8349 32.7242C19.3904 32.2 19.422 31.4067 19.9301 30.9146ZM44.4218 50.2002C44.4218 50.8988 43.8506 51.47 43.152 51.47H17.0251C16.3266 51.47 15.7553 50.8988 15.7553 50.2002C15.7553 49.5017 16.3266 48.9304 17.0251 48.9304H43.168C43.8666 48.9304 44.4218 49.5021 44.4218 50.2002Z" fill="#2F8F9C"/>
</g>
<defs>
<clipPath id="clip0">
<rect width="60" height="60" fill="white"/>
</clipPath>
</defs>
</svg>
