<svg width="231" height="157" viewBox="0 0 231 157" fill="none" xmlns="http://www.w3.org/2000/svg">
<path d="M226.431 38.7368C216.344 16.2254 185.272 2.72561 158.956 11.6593C128.916 21.8564 138.876 63.7642 111.59 72.2385C96.8509 76.8161 75.062 59.7164 60.1707 57.0944C32.73 52.2628 7.88846 69.2449 1.77148 92.7618C-4.46912 116.754 5.54011 148.799 35.5944 155.311C71.3949 163.068 90.0432 134.841 120.076 126.736C150.895 118.418 185.163 138.062 210.677 114.162C229.527 96.5045 236.419 61.0282 226.431 38.7368Z" fill="url(#paint0_linear)"/>
<path opacity="0.1" d="M197.154 46.5522C197.154 31.9485 185.316 20.11 170.712 20.11C159.398 20.11 149.749 27.2182 145.973 37.2102H50.3578C46.2737 37.2102 42.9631 40.5208 42.9631 44.6049V126.467C42.9631 130.551 46.2737 133.862 50.3578 133.862H180.642C184.727 133.862 188.037 130.551 188.037 126.467V66.5189C193.619 61.6706 197.154 54.5266 197.154 46.5522Z" fill="#1E5E67"/>
<path d="M180.643 124.619H50.3577C46.2736 124.619 42.963 121.308 42.963 117.224V35.3615C42.963 31.2775 46.2736 27.9669 50.3577 27.9669H180.642C184.726 27.9669 188.037 31.2775 188.037 35.3615V117.224C188.037 121.308 184.726 124.619 180.643 124.619Z" fill="#88DCE8"/>
<path d="M188.038 35.3634V66.6058C183.398 70.6322 177.341 73.0724 170.712 73.0724C156.108 73.0724 144.269 61.2336 144.269 46.6328C144.269 39.3491 147.216 32.7494 151.981 27.9687H180.643C184.725 27.9687 188.038 31.2778 188.038 35.3634Z" fill="#308E9B"/>
<path d="M188.038 35.3644V44.6854L122.259 95.2168C120.329 96.6994 117.929 97.5128 115.5 97.5128C113.071 97.5128 110.671 96.6994 108.741 95.2168L42.962 44.6854V35.3644C42.962 31.2788 46.2748 27.9697 50.3567 27.9697H180.643C184.725 27.9697 188.038 31.2788 188.038 35.3644Z" fill="#2F8E9B"/>
<path d="M117.752 63.2339L188.037 117.224C188.037 121.308 184.726 124.619 180.642 124.619H50.3574C46.2733 124.619 42.9627 121.308 42.9627 117.224L113.247 63.2339C114.576 62.2134 116.424 62.2134 117.752 63.2339Z" fill="#8BD0DA"/>
<path d="M140.823 80.9552L122.259 95.2158C120.329 96.6984 117.929 97.5118 115.5 97.5118C113.071 97.5118 110.671 96.6984 108.741 95.2158L90.1769 80.9552L113.248 63.2339C114.576 62.2134 116.424 62.2134 117.752 63.2339L140.823 80.9552Z" fill="#193D42"/>
<path d="M113.248 89.3522L42.963 35.3615C42.963 31.2775 46.2736 27.9669 50.3577 27.9669H180.642C184.726 27.9669 188.037 31.2775 188.037 35.3615L117.753 89.3522C116.424 90.3723 114.576 90.3723 113.248 89.3522Z" fill="#ABE8F0"/>
<path d="M158 114.78H146.119C145.098 114.78 144.27 113.952 144.27 112.931V104.74C144.27 103.719 145.098 102.891 146.119 102.891H158C159.021 102.891 159.849 103.719 159.849 104.74V112.931C159.849 113.952 159.021 114.78 158 114.78Z" fill="#2F8E9B"/>
<path d="M136.157 107.244H125.866C124.845 107.244 124.018 106.416 124.018 105.395C124.018 104.374 124.845 103.547 125.866 103.547H136.157C137.178 103.547 138.006 104.374 138.006 105.395C138.006 106.416 137.178 107.244 136.157 107.244Z" fill="white"/>
<path d="M136.157 114.78H99.9851C98.9639 114.78 98.1365 113.952 98.1365 112.931C98.1365 111.91 98.9639 111.082 99.9851 111.082H136.157C137.178 111.082 138.006 111.91 138.006 112.931C138.006 113.952 137.178 114.78 136.157 114.78Z" fill="white"/>
<path d="M170.712 63.7511C185.316 63.7511 197.154 51.9125 197.154 37.3089C197.154 22.7053 185.316 10.8667 170.712 10.8667C156.109 10.8667 144.27 22.7053 144.27 37.3089C144.27 51.9125 156.109 63.7511 170.712 63.7511Z" fill="#2F8E9B"/>
<path d="M170.712 65.5998C186.312 65.5998 199.003 52.9087 199.003 37.3089C199.003 21.7092 186.312 9.01807 170.712 9.01807C155.112 9.01807 142.421 21.7092 142.421 37.3089C142.421 46.3837 146.721 54.4682 153.385 59.6486L116.626 87.8858C115.964 88.3953 115.037 88.3957 114.374 87.8858L44.878 34.5015C45.2924 31.8506 47.5922 29.8155 50.3574 29.8155H135.162C136.183 29.8155 137.01 28.9877 137.01 27.9669C137.01 26.9461 136.183 26.1182 135.162 26.1182H50.3578C45.261 26.1182 41.1144 30.2648 41.1144 35.3615V117.224C41.1144 122.321 45.261 126.467 50.3578 126.467H180.642C185.739 126.467 189.886 122.321 189.886 117.224V68.3676C189.886 67.3468 189.058 66.5189 188.037 66.5189C187.016 66.5189 186.188 67.3468 186.188 68.3676V113.473L137.787 76.2928L156.622 61.8252C160.774 64.2211 165.584 65.5998 170.712 65.5998ZM93.2124 76.2928L44.8118 113.473V39.1129L93.2124 76.2928ZM186.115 118.079C185.702 120.732 183.409 122.77 180.642 122.77H50.3578C47.5911 122.77 45.298 120.732 44.8846 118.079L96.2475 78.624L112.122 90.8178C113.116 91.5817 114.308 91.964 115.5 91.964C116.692 91.964 117.884 91.582 118.879 90.8178L134.753 78.6236L186.115 118.079ZM146.119 37.3089C146.119 23.7482 157.151 12.7154 170.712 12.7154C184.273 12.7154 195.306 23.7479 195.306 37.3089C195.306 50.87 184.273 61.9024 170.712 61.9024C157.151 61.9024 146.119 50.8696 146.119 37.3089Z" fill="#222223"/>
<path d="M159.171 28.2915L162.944 37.3089L159.171 46.3264C158.53 47.8578 160.076 49.3922 161.602 48.74L184.385 39.009C185.881 38.3697 185.881 36.2482 184.385 35.6089L161.602 25.8779C160.076 25.2257 158.53 26.7601 159.171 28.2915Z" fill="white"/>
<path d="M171.552 39.0349L160.192 43.8894L162.943 37.3082L160.188 30.727L171.552 35.5816C172.969 36.1879 172.969 38.4322 171.552 39.0349Z" fill="#FFDBED"/>
<path d="M143.166 10.717C141.793 10.717 140.42 10.1946 139.375 9.14932C137.285 7.05885 137.285 3.65768 139.375 1.56757C141.465 -0.522155 144.867 -0.522895 146.957 1.56757C149.047 3.65804 149.047 7.05922 146.957 9.14932C145.912 10.1946 144.539 10.717 143.166 10.717ZM143.166 3.69539C142.74 3.69539 142.314 3.85733 141.989 4.18196C141.341 4.83047 141.341 5.88606 141.989 6.53494C142.639 7.18345 143.693 7.18382 144.342 6.53494C144.991 5.88643 144.991 4.83084 144.342 4.18196C144.018 3.8577 143.592 3.69539 143.166 3.69539Z" fill="#87CDD7"/>
<path d="M101.649 150.344C100.276 150.344 98.903 149.822 97.8581 148.777C95.7677 146.686 95.7677 143.285 97.8581 141.195C99.9479 139.105 103.35 139.105 105.44 141.195C107.53 143.285 107.53 146.687 105.44 148.777C104.395 149.822 103.022 150.344 101.649 150.344ZM101.649 143.323C101.223 143.323 100.797 143.485 100.472 143.809C99.8236 144.458 99.8236 145.513 100.472 146.162C101.121 146.811 102.176 146.811 102.825 146.162C103.474 145.514 103.474 144.458 102.825 143.809C102.501 143.485 102.075 143.323 101.649 143.323Z" fill="#87CDD7"/>
<path d="M129.838 15.4777C129.365 15.4777 128.892 15.2972 128.531 14.9364L126.326 12.7313L124.12 14.9364C123.399 15.6581 122.228 15.6581 121.506 14.9364C120.784 14.2143 120.784 13.0437 121.506 12.322L125.019 8.80954C125.74 8.08782 126.911 8.08782 127.633 8.80954L131.145 12.322C131.867 13.0441 131.867 14.2147 131.145 14.9364C130.785 15.2969 130.311 15.4777 129.838 15.4777Z" fill="#193D42"/>
<path d="M183.437 143.322C182.964 143.322 182.49 143.142 182.13 142.781L179.924 140.576L177.719 142.781C176.998 143.503 175.826 143.503 175.105 142.781C174.383 142.059 174.383 140.888 175.105 140.166L178.617 136.654C179.339 135.932 180.51 135.932 181.231 136.654L184.744 140.166C185.466 140.888 185.466 142.059 184.744 142.781C184.383 143.141 183.91 143.322 183.437 143.322Z" fill="#193D42"/>
<path d="M86.9876 145.078C86.5147 145.078 86.0411 144.898 85.6806 144.537L83.4752 142.332L81.2697 144.537C80.5484 145.259 79.3771 145.259 78.6557 144.537C77.9336 143.815 77.9336 142.644 78.6557 141.923L82.1682 138.41C82.8895 137.688 84.0608 137.688 84.7822 138.41L88.2946 141.923C89.0167 142.645 89.0167 143.815 88.2946 144.537C87.9338 144.898 87.4605 145.078 86.9876 145.078Z" fill="#00B4CD"/>
<defs>
<linearGradient id="paint0_linear" x1="195.057" y1="176.866" x2="106.418" y2="42.982" gradientUnits="userSpaceOnUse">
<stop stop-color="#2F8E9B"/>
<stop offset="0.5834" stop-color="#8BD5DF"/>
<stop offset="1" stop-color="#DCEEF0"/>
</linearGradient>
</defs>
</svg>
