<svg width="50" height="50" viewBox="0 0 50 50" fill="none" xmlns="http://www.w3.org/2000/svg">
<path d="M46.3214 8.33321C46.3214 12.0728 43.2903 15.1043 39.5507 15.1043C35.8112 15.1043 32.78 12.0728 32.78 8.33321C32.78 4.59404 35.8112 1.5625 39.5507 1.5625C43.2903 1.5625 46.3214 4.59404 46.3214 8.33321Z" fill="#2F8F9C"/>
<path d="M39.5507 16.6668C34.9548 16.6668 31.2175 12.9292 31.2175 8.33321C31.2175 3.73764 34.9548 0 39.5507 0C44.1467 0 47.8839 3.73764 47.8839 8.33321C47.8839 12.9292 44.1467 16.6668 39.5507 16.6668ZM39.5507 3.125C36.6779 3.125 34.3425 5.46265 34.3425 8.33321C34.3425 11.2041 36.6779 13.5418 39.5507 13.5418C42.4236 13.5418 44.7589 11.2041 44.7589 8.33321C44.7589 5.46265 42.4236 3.125 39.5507 3.125Z" fill="#2F8F9C"/>
<path d="M46.3214 41.6668C46.3214 45.406 43.2903 48.4375 39.5507 48.4375C35.8112 48.4375 32.78 45.406 32.78 41.6668C32.78 37.9272 35.8112 34.8957 39.5507 34.8957C43.2903 34.8957 46.3214 37.9272 46.3214 41.6668Z" fill="#2F8F9C"/>
<path d="M39.5507 50C34.9548 50 31.2175 46.2624 31.2175 41.6668C31.2175 37.0708 34.9548 33.3332 39.5507 33.3332C44.1467 33.3332 47.8839 37.0708 47.8839 41.6668C47.8839 46.2624 44.1467 50 39.5507 50ZM39.5507 36.4582C36.6779 36.4582 34.3425 38.7959 34.3425 41.6668C34.3425 44.5374 36.6779 46.875 39.5507 46.875C42.4236 46.875 44.7589 44.5374 44.7589 41.6668C44.7589 38.7959 42.4236 36.4582 39.5507 36.4582Z" fill="#2F8F9C"/>
<path d="M17.1551 25C17.1551 28.7395 14.1235 31.7707 10.384 31.7707C6.64482 31.7707 3.61328 28.7395 3.61328 25C3.61328 21.2605 6.64482 18.2293 10.384 18.2293C14.1235 18.2293 17.1551 21.2605 17.1551 25Z" fill="#2F8F9C"/>
<path d="M10.384 33.3332C5.78842 33.3332 2.05078 29.5959 2.05078 25C2.05078 20.4041 5.78842 16.6668 10.384 16.6668C14.9799 16.6668 18.7176 20.4041 18.7176 25C18.7176 29.5959 14.9799 33.3332 10.384 33.3332ZM10.384 19.7918C7.51114 19.7918 5.17578 22.1291 5.17578 25C5.17578 27.8709 7.51114 30.2082 10.384 30.2082C13.2572 30.2082 15.5926 27.8709 15.5926 25C15.5926 22.1291 13.2572 19.7918 10.384 19.7918Z" fill="#2F8F9C"/>
<path d="M15.3029 24.0002C14.5778 24.0002 13.8736 23.6229 13.4902 22.9481C12.9214 21.9502 13.2716 20.6772 14.2695 20.1061L33.6005 9.08547C34.5984 8.5125 35.8714 8.86269 36.4425 9.86443C37.0112 10.8624 36.661 12.1353 35.6631 12.7064L16.3318 23.727C16.0068 23.9124 15.6527 24.0002 15.3029 24.0002Z" fill="#2F8F9C"/>
<path d="M34.632 41.1877C34.2818 41.1877 33.9278 41.0999 33.6028 40.9145L14.2714 29.8939C13.2735 29.3251 12.9237 28.0521 13.4925 27.0519C14.059 26.0521 15.3338 25.7 16.3341 26.273L35.6654 37.2936C36.6633 37.8624 37.0131 39.1354 36.4444 40.1356C36.0591 40.8104 35.3549 41.1877 34.632 41.1877Z" fill="#2F8F9C"/>
</svg>
